<svg width="36" height="42" viewBox="0 0 36 42" fill="none" xmlns="http://www.w3.org/2000/svg">
<circle cx="16.2188" cy="8.01324" r="1.1651" fill="#375D81"/>
<path d="M12.9422 12.6736C12.3252 12.3445 11.2793 11.245 11.2935 9.25109M20.5881 7.79472C20.4425 4.88198 17.9667 4.00818 16.5103 3.93536C15.0539 3.86254 12.0684 4.66354 11.413 8.08602C11.333 8.50387 11.2961 8.89199 11.2935 9.25109M20.5881 7.79472C20.805 8.22854 21.5245 9.52385 19.9665 11.7519C19.9528 11.7715 19.9222 11.7679 19.9146 11.7453C19.8461 11.54 19.7705 11.316 19.6856 11.0968M20.5881 7.79472C20.3697 7.64908 19.7143 7.50345 18.8405 8.23163C17.9667 8.95982 18.5492 9.68801 18.9861 9.97928C19.2412 10.1494 19.4467 10.5181 19.617 10.9259M19.617 10.9259C19.431 11.2657 18.7677 12.0473 17.6026 12.4551M19.617 10.9259C19.6406 10.9823 19.6634 11.0394 19.6856 11.0968M11.2935 9.25109C11.2893 9.89363 11.2689 10.8862 11.2218 11.7997M13.7433 22.6497C13.5976 22.5769 12.4325 21.339 11.3402 19.2272C10.2479 17.1155 10.6848 14.6397 10.9761 13.9115C11.0949 13.6145 11.1728 12.7498 11.2218 11.7997M13.7433 22.6497C10.4664 19.4457 9.73824 18.2806 9.66542 15.5135C9.60716 13.2998 10.6787 12.1153 11.2218 11.7997M13.7433 22.6497C13.6589 22.7622 13.5598 22.9791 13.5708 23.2323M13.7433 22.6497C13.9362 22.5211 14.5837 22.4492 14.8326 23.0866M13.5708 23.2323C13.5787 23.416 13.6446 23.6188 13.8161 23.8148C13.9082 23.9201 14.0074 24.0039 14.1073 24.0651M13.5708 23.2323C13.2399 23.208 12.6364 23.3488 12.8694 24.1061C12.8742 24.1217 12.8792 24.137 12.8844 24.152M14.1073 24.0651C14.1073 24.6694 13.1917 25.0403 12.8844 24.152M14.1073 24.0651C14.5306 24.3242 14.9662 24.1764 14.9245 23.5235M1 30.2228L12.8844 24.152M19.6856 11.0968C19.6952 11.404 19.7144 12.0328 19.7144 12.091C19.7144 12.1638 21.462 13.3289 21.9718 14.8581C22.4815 16.3873 22.6271 17.6252 22.6271 17.9165C22.6271 18.0497 22.6728 18.4567 22.7571 18.936M18.9862 13.4746C18.9134 13.5474 17.6755 14.3484 17.7483 16.1689C17.8211 17.9893 19.2775 19.8098 19.4959 20.1011C19.5527 20.1768 19.6342 20.3068 19.7595 20.4922M14.9245 23.5235C14.9215 23.4775 14.9162 23.429 14.9084 23.3779C14.8914 23.2674 14.8654 23.1708 14.8326 23.0866M14.9245 23.5235C15.0943 23.6221 15.369 23.767 15.6365 23.8781M16.2919 24.0333C16.1485 24.0619 15.8959 23.9859 15.6365 23.8781M15.6365 23.8781C16.389 27.3038 17.923 34.2133 18.0396 34.4463M18.0396 34.4463C18.1852 34.7376 19.7144 38.5242 20.7338 34.4463M18.0396 34.4463C18.5201 36.2812 19.4332 39.8381 19.6111 40.7864C19.6173 40.8198 19.6835 40.8236 19.6906 40.7903C19.9124 39.7461 20.4654 36.2137 20.7338 34.4463M20.7338 34.4463C21.2581 31.0093 21.5812 25.2469 21.6772 22.7954M21.6772 22.7954C21.8779 23.0019 22.0969 23.2203 22.3358 23.4507C24.3866 25.1479 25.6133 25.6089 26.8162 25.7675C26.8457 25.7714 26.8606 25.7334 26.8371 25.7153C24.568 23.9683 23.5692 21.4018 23.2097 20.6108C23.012 20.176 22.8573 19.5051 22.7571 18.936M21.6772 22.7954C20.6108 21.698 20.0595 20.9361 19.7595 20.4922M18.4036 20.3923C18.3308 20.3923 18.0396 20.538 18.1852 21.339C18.231 21.591 18.3417 21.7781 18.4765 21.8936M18.4036 20.3923C17.991 20.4894 17.1657 20.8438 17.1657 21.4846C17.1657 22.2856 17.8211 22.3584 17.8939 22.3584C17.9667 22.3584 18.4036 22.3754 18.4765 21.8936M18.4036 20.3923C18.593 20.4735 18.8789 20.6451 19.0747 20.882M18.4765 21.8936C18.77 22.1451 19.1777 22.0565 19.2775 21.5574C19.329 21.2995 19.2303 21.0702 19.0747 20.882M14.8326 23.0866L17.1657 21.8487M19.0747 20.882L19.7595 20.4922M22.7571 18.936C23.1204 18.8124 23.827 18.3768 24.8673 17.4796M32.0935 9.39673C31.7312 8.59956 31.7295 6.87922 34.6005 6.34596C34.6204 6.34229 34.6389 6.35822 34.6354 6.37807C34.538 6.93664 33.9373 9.89312 32.0935 9.39673ZM32.0935 9.39673C31.9809 9.54445 31.8692 9.69008 31.7584 9.83364M31.4585 10.2204C31.7891 9.6829 32.2612 8.29615 31.5277 7.02232C31.519 7.00719 31.499 7.00288 31.4853 7.01364C31.113 7.30474 30.4096 7.97842 30.3817 8.5048M31.4585 10.2204C31.2792 10.4504 31.1025 10.6749 30.9284 10.894M31.4585 10.2204C31.5577 10.0932 31.6576 9.96428 31.7584 9.83364M24.8673 17.4796C24.2452 16.9725 23.4079 15.572 25.0046 14.0091C25.0176 13.9964 25.0393 13.9978 25.0506 14.0119C25.2497 14.2607 26.1408 15.0041 25.5964 16.8242M24.8673 17.4796C25.0945 17.2837 25.3375 17.0657 25.5964 16.8242M24.8673 17.4796C25.3079 17.987 26.62 18.6242 28.3556 17.1363C28.3685 17.1253 28.3697 17.1054 28.3576 17.0937C28.0878 16.8336 26.8937 15.8265 25.9043 16.533M25.5964 16.8242C25.6967 16.7307 25.7993 16.6336 25.9043 16.533M25.9043 16.533C26.0909 16.354 26.285 16.1636 26.4865 15.9612M26.7778 15.6656C26.2707 15.2047 25.533 13.8528 26.6151 12.1181C26.6241 12.1037 26.6435 12.0995 26.6569 12.11C26.9769 12.3602 27.9392 13.2987 27.5459 14.8581M26.7778 15.6656C27.0235 15.4137 27.2796 15.1448 27.5459 14.8581M26.7778 15.6656C26.679 15.7669 26.5819 15.8654 26.4865 15.9612M27.5459 14.8581C27.581 14.8204 27.6162 14.7824 27.6516 14.744M26.4865 15.9612C27.2582 16.2711 29.0408 16.5727 30.0351 15.3199C30.0456 15.3067 30.0429 15.2872 30.0288 15.2779C29.7647 15.104 28.776 14.4933 27.6516 14.744M27.6516 14.744C27.8942 14.4812 28.1452 14.2039 28.4044 13.9115M28.4526 13.857C27.8242 13.3676 26.9022 12.0008 28.2171 10.4364C28.2266 10.4251 28.2433 10.4222 28.2554 10.4306C28.5149 10.61 29.53 11.4265 29.0352 13.1887M28.4526 13.857C28.6424 13.6424 28.8366 13.4197 29.0352 13.1887M28.4526 13.857C28.4365 13.8752 28.4204 13.8934 28.4044 13.9115M29.0352 13.1887C29.0781 13.1387 29.1212 13.0884 29.1646 13.0377M28.4044 13.9115C28.9409 14.3703 30.2954 14.9395 31.4405 13.5691C31.4504 13.5572 31.4497 13.5393 31.4382 13.529C31.1787 13.2946 30.4245 12.6833 29.1646 13.0377M29.1646 13.0377C29.4293 12.7278 29.7018 12.4034 29.9818 12.0638M29.9818 12.0638C30.2235 12.5079 31.1537 13.1055 32.9449 11.9598C32.9574 11.9518 32.9624 11.9354 32.9554 11.9223C32.8493 11.7244 32.6178 11.4568 32.2916 11.2643M29.9818 12.0638C30.0339 12.0006 30.0863 11.9368 30.139 11.8726M30.71 11.1678C30.5163 11.4095 30.326 11.6443 30.139 11.8726M30.71 11.1678C30.7823 11.0775 30.8552 10.9862 30.9284 10.894M30.71 11.1678C31.3424 10.9038 31.8891 11.0268 32.2916 11.2643M30.139 11.8726C29.4103 11.5343 28.3893 10.3255 30.1034 8.18858C30.1153 8.17379 30.1385 8.17348 30.1499 8.18857C30.2036 8.25909 30.287 8.36725 30.3817 8.5048M30.9284 10.894C31.2637 9.97553 30.7415 9.02778 30.3817 8.5048M32.2916 11.2643C32.6548 11.1538 33.4436 10.8374 33.7496 10.4414C33.76 10.4279 33.7561 10.4088 33.7416 10.4001C33.3654 10.1738 32.5686 9.69148 31.7584 9.83364M30.0546 4.66352C28.6711 3.32851 24.6224 0.731318 19.4959 1.02259C13.0879 1.38669 9.51978 3.98481 6.75267 7.57629C3.98556 11.1678 4.1312 15.1494 4.05838 16.8242C3.98556 18.4991 5.07784 23.0138 7.11676 24.8343M9.66542 27.6014C10.9033 28.5238 13.8306 30.4122 15.6365 30.587M22.4815 30.8054C24.0184 30.587 27.7016 29.5675 30.139 27.2373M32.312 24.9071L32.8217 24.3246M33.8412 22.5769C34.3266 21.5089 35.3267 18.9942 35.4432 17.4796C35.5888 15.5863 35.3704 13.5474 35.1519 12.7464M17.3114 26.0722L19.0747 33.2812M20.5154 24.0333L20.1513 28.2568M5.44193 19.3001H9.51978M5.80603 21.1205H10.7577M6.75267 22.8682H11.3402M7.91777 24.6887H9.66542M11.4859 26.6548H14.9245M24.8845 19.3001H26.4865M27.1419 19.3001H28.0885M28.7439 19.3001H34.1325M24.9573 21.1205H33.6227M25.9043 22.8682H32.9674M27.5788 24.6158H31.6566M22.6271 27.0917H27.506M22.8456 28.4752H24.8673M13.7433 28.1111H14.9084" stroke="#375D81" stroke-width="0.595745" stroke-linecap="round"/>
<circle cx="16.0735" cy="7.72194" r="0.291274" fill="white"/>
</svg>
